<svg width="80" height="80" viewBox="0 0 80 80" fill="none" xmlns="http://www.w3.org/2000/svg">
<rect width="80" height="80" rx="16" fill="#0BE07B" fill-opacity="0.14"/>
<circle cx="20.2833" cy="32.2833" r="5.28331" fill="#01CF6E"/>
<path d="M15 44.4757C15 41.5578 17.3654 39.1924 20.2833 39.1924C23.2012 39.1924 25.5666 41.5578 25.5666 44.4757V53.0103H15V44.4757Z" fill="#01CF6E"/>
<circle cx="40.5" cy="32.2833" r="5.28331" fill="#01CF6E"/>
<path d="M35.2167 44.4757C35.2167 41.5578 37.5822 39.1924 40.5 39.1924C43.4179 39.1924 45.7834 41.5578 45.7834 44.4757V53.0103H35.2167V44.4757Z" fill="#01CF6E"/>
<circle cx="60.7167" cy="32.2833" r="5.28331" fill="#01CF6E"/>
<path d="M55.4334 44.4757C55.4334 41.5578 57.7989 39.1924 60.7168 39.1924C63.6346 39.1924 66.0001 41.5578 66.0001 44.4757V53.0103H55.4334V44.4757Z" fill="#01CF6E"/>
</svg>
