<svg width="80" height="80" viewBox="0 0 80 80" fill="none" xmlns="http://www.w3.org/2000/svg">
<rect width="80" height="80" rx="16" fill="#0099FF" fill-opacity="0.14"/>
<g clip-path="url(#clip0_3177_14588)">
<g clip-path="url(#clip1_3177_14588)">
<circle cx="39.8556" cy="14.9318" r="3.55538" fill="#0099FF"/>
<path d="M36.3002 23.1369C36.3002 21.1733 37.892 19.5815 39.8556 19.5815C41.8192 19.5815 43.411 21.1733 43.411 23.1369V28.8802H36.3002V23.1369Z" fill="#0099FF"/>
<circle cx="61.2856" cy="46.1399" r="3.55538" fill="#0099FF"/>
<path d="M57.7302 54.3444C57.7302 52.3809 59.322 50.7891 61.2856 50.7891C63.2492 50.7891 64.841 52.3809 64.841 54.3444V60.0878H57.7302V54.3444Z" fill="#0099FF"/>
<circle cx="19.5508" cy="46.1399" r="3.55538" fill="#0099FF"/>
<path d="M15.9954 54.3444C15.9954 52.3809 17.5872 50.7891 19.5508 50.7891C21.5144 50.7891 23.1062 52.3809 23.1062 54.3444V60.0878H15.9954V54.3444Z" fill="#0099FF"/>
<path d="M52.6801 63.31C53.0106 63.0348 53.0556 62.5438 52.7804 62.2132C52.5052 61.8826 52.0142 61.8377 51.6836 62.1128L52.6801 63.31ZM33.1983 63.7725C32.8328 63.5459 32.3527 63.6585 32.1261 64.0241C31.8995 64.3897 32.0121 64.8698 32.3777 65.0964L33.1983 63.7725ZM51.6836 62.1128C48.0376 65.1476 40.4143 68.2453 33.1983 63.7725L32.3777 65.0964C40.3867 70.0608 48.7545 66.5775 52.6801 63.31L51.6836 62.1128Z" fill="#0099FF"/>
<path d="M28.9373 61.8115L35.1886 61.9585L31.7878 67.3771L28.9373 61.8115Z" fill="#0099FF"/>
<path d="M49.9292 19.2125C49.5205 19.0785 49.0805 19.3011 48.9464 19.7097C48.8123 20.1184 49.0349 20.5584 49.4436 20.6925L49.9292 19.2125ZM58.4677 26.612L59.0869 26.1396L58.4677 26.612ZM61.606 35.1932C61.6147 35.6233 61.9705 35.9647 62.4005 35.956C62.8305 35.9472 63.172 35.5914 63.1633 35.1614L61.606 35.1932ZM49.6864 19.9525C49.4436 20.6925 49.4434 20.6925 49.4432 20.6924C49.4431 20.6924 49.4429 20.6923 49.4428 20.6923C49.4426 20.6922 49.4425 20.6922 49.4425 20.6922C49.4424 20.6921 49.4427 20.6922 49.4432 20.6924C49.4442 20.6927 49.4464 20.6935 49.4498 20.6946C49.4565 20.6969 49.4678 20.7008 49.4835 20.7064C49.515 20.7175 49.5641 20.7352 49.6294 20.76C49.7601 20.8096 49.9553 20.8875 50.2035 20.9969C50.7002 21.216 51.4074 21.561 52.2328 22.0591C53.8849 23.0562 55.9988 24.6599 57.8485 27.0844L59.0869 26.1396C57.0916 23.5243 54.8149 21.7982 53.0376 20.7256C52.1482 20.1888 51.3811 19.8139 50.832 19.5718C50.5574 19.4506 50.3369 19.3626 50.1826 19.3039C50.1054 19.2746 50.0447 19.2526 50.002 19.2376C49.9806 19.23 49.9638 19.2242 49.9516 19.2201C49.9455 19.218 49.9405 19.2163 49.9368 19.2151C49.9349 19.2144 49.9334 19.2139 49.9321 19.2135C49.9315 19.2133 49.9309 19.2131 49.9304 19.2129C49.9302 19.2129 49.9299 19.2128 49.9297 19.2127C49.9295 19.2126 49.9292 19.2125 49.6864 19.9525ZM57.8485 27.0844C59.7182 29.5351 60.6568 31.5992 61.1284 33.0286C61.3644 33.744 61.4841 34.3025 61.5447 34.6732C61.5749 34.8586 61.5904 34.9973 61.5983 35.0852C61.6022 35.1292 61.6042 35.1605 61.6052 35.1786C61.6057 35.1877 61.6059 35.1935 61.606 35.196C61.6061 35.1972 61.6061 35.1976 61.6061 35.1971C61.606 35.1969 61.606 35.1965 61.606 35.1958C61.606 35.1955 61.606 35.1951 61.606 35.1947C61.606 35.1945 61.606 35.1941 61.606 35.194C61.606 35.1936 61.606 35.1932 62.3846 35.1773C63.1633 35.1614 63.1632 35.161 63.1632 35.1606C63.1632 35.1604 63.1632 35.16 63.1632 35.1596C63.1632 35.159 63.1632 35.1583 63.1632 35.1575C63.1631 35.156 63.1631 35.1543 63.163 35.1524C63.1629 35.1485 63.1628 35.1437 63.1626 35.1381C63.1621 35.1269 63.1615 35.1123 63.1605 35.0943C63.1586 35.0584 63.1553 35.009 63.1497 34.9468C63.1386 34.8222 63.1185 34.646 63.0819 34.4222C63.0088 33.9744 62.8702 33.3365 62.6076 32.5406C62.0819 30.9473 61.0621 28.7287 59.0869 26.1396L57.8485 27.0844Z" fill="#0099FF"/>
<path d="M62.2525 39.2273L58.9175 33.9378L65.3128 33.7742L62.2525 39.2273Z" fill="#0099FF"/>
<path d="M16.7399 38.9504C16.755 39.3803 17.1157 39.7166 17.5455 39.7015C17.9754 39.6865 18.3117 39.3258 18.2966 38.8959L16.7399 38.9504ZM20.7415 28.3842L21.3984 28.8025L20.7415 28.3842ZM27.7143 22.4795C28.1149 22.3229 28.3128 21.8713 28.1563 21.4706C27.9998 21.07 27.5481 20.8721 27.1475 21.0287L27.7143 22.4795ZM17.5183 38.9232C18.2966 38.8959 18.2966 38.8962 18.2966 38.8964C18.2966 38.8964 18.2966 38.8966 18.2966 38.8967C18.2966 38.8969 18.2966 38.8971 18.2966 38.8971C18.2966 38.8972 18.2966 38.8969 18.2966 38.8964C18.2966 38.8953 18.2965 38.893 18.2964 38.8894C18.2963 38.8823 18.296 38.8703 18.2958 38.8537C18.2954 38.8203 18.2951 38.7681 18.2959 38.6982C18.2974 38.5585 18.3032 38.3484 18.3203 38.0777C18.3547 37.5359 18.4347 36.7531 18.6176 35.8066C18.9839 33.912 19.7603 31.3748 21.3984 28.8025L20.0845 27.9659C18.3176 30.7405 17.4824 33.4728 17.0884 35.5109C16.8912 36.5308 16.8038 37.3802 16.7658 37.9791C16.7468 38.2787 16.7402 38.516 16.7384 38.6811C16.7374 38.7636 16.7377 38.8282 16.7383 38.8735C16.7386 38.8961 16.739 38.914 16.7393 38.9268C16.7394 38.9333 16.7396 38.9385 16.7397 38.9424C16.7397 38.9444 16.7398 38.946 16.7398 38.9474C16.7399 38.948 16.7399 38.9486 16.7399 38.9491C16.7399 38.9494 16.7399 38.9497 16.7399 38.9498C16.7399 38.9502 16.7399 38.9504 17.5183 38.9232ZM21.3984 28.8025C23.0541 26.2025 24.668 24.6097 25.8471 23.6741C26.4372 23.2059 26.9202 22.901 27.2473 22.7163C27.4109 22.624 27.5357 22.5616 27.6155 22.5239C27.6555 22.5051 27.6842 22.4924 27.7009 22.4852C27.7092 22.4816 27.7146 22.4794 27.7169 22.4785C27.718 22.478 27.7183 22.4779 27.7179 22.478C27.7177 22.4781 27.7173 22.4783 27.7167 22.4785C27.7164 22.4786 27.716 22.4788 27.7156 22.4789C27.7154 22.479 27.7151 22.4792 27.715 22.4792C27.7147 22.4793 27.7143 22.4795 27.4309 21.7541C27.1475 21.0287 27.1471 21.0288 27.1467 21.029C27.1465 21.029 27.1461 21.0292 27.1458 21.0293C27.1452 21.0295 27.1445 21.0298 27.1438 21.0301C27.1424 21.0306 27.1408 21.0313 27.139 21.032C27.1354 21.0334 27.131 21.0352 27.1258 21.0373C27.1155 21.0416 27.102 21.0472 27.0854 21.0543C27.0524 21.0686 27.0072 21.0887 26.9507 21.1154C26.8376 21.1687 26.6791 21.2484 26.4816 21.3599C26.0865 21.5829 25.5356 21.933 24.879 22.4539C23.5647 23.4967 21.8338 25.219 20.0845 27.9659L21.3984 28.8025Z" fill="#0099FF"/>
<path d="M31.2778 20.4821L27.4627 25.4365L25.104 19.4898L31.2778 20.4821Z" fill="#0099FF"/>
</g>
</g>
<defs>
<clipPath id="clip0_3177_14588">
<rect width="56.7527" height="56.7527" fill="white" transform="translate(12.0455 11.3765)"/>
</clipPath>
<clipPath id="clip1_3177_14588">
<rect width="54.2489" height="56.7527" fill="white" transform="translate(12.8801 11.3765)"/>
</clipPath>
</defs>
</svg>
