<?xml version="1.0" standalone="no"?>
<svg xmlns:xlink="http://www.w3.org/1999/xlink" id="wave" style="transform:rotate(180deg); transition: 0.3s" viewBox="0 0 1440 450" version="1.1" xmlns="http://www.w3.org/2000/svg"><defs><linearGradient id="sw-gradient-0" x1="0" x2="0" y1="1" y2="0"><stop stop-color="rgba(243, 106, 62, 1)" offset="0%"/><stop stop-color="rgba(255, 179, 11, 1)" offset="100%"/></linearGradient></defs><path style="transform:translate(0, 0px); opacity:1" fill="url(#sw-gradient-0)" d="M0,270L34.3,277.5C68.6,285,137,300,206,285C274.3,270,343,225,411,225C480,225,549,270,617,240C685.7,210,754,105,823,112.5C891.4,120,960,240,1029,262.5C1097.1,285,1166,210,1234,195C1302.9,180,1371,225,1440,240C1508.6,255,1577,240,1646,255C1714.3,270,1783,315,1851,300C1920,285,1989,210,2057,157.5C2125.7,105,2194,75,2263,67.5C2331.4,60,2400,75,2469,112.5C2537.1,150,2606,210,2674,247.5C2742.9,285,2811,300,2880,255C2948.6,210,3017,105,3086,60C3154.3,15,3223,30,3291,82.5C3360,135,3429,225,3497,262.5C3565.7,300,3634,285,3703,270C3771.4,255,3840,240,3909,247.5C3977.1,255,4046,285,4114,247.5C4182.9,210,4251,105,4320,60C4388.6,15,4457,30,4526,60C4594.3,90,4663,135,4731,180C4800,225,4869,270,4903,292.5L4937.1,315L4937.1,450L4902.9,450C4868.6,450,4800,450,4731,450C4662.9,450,4594,450,4526,450C4457.1,450,4389,450,4320,450C4251.4,450,4183,450,4114,450C4045.7,450,3977,450,3909,450C3840,450,3771,450,3703,450C3634.3,450,3566,450,3497,450C3428.6,450,3360,450,3291,450C3222.9,450,3154,450,3086,450C3017.1,450,2949,450,2880,450C2811.4,450,2743,450,2674,450C2605.7,450,2537,450,2469,450C2400,450,2331,450,2263,450C2194.3,450,2126,450,2057,450C1988.6,450,1920,450,1851,450C1782.9,450,1714,450,1646,450C1577.1,450,1509,450,1440,450C1371.4,450,1303,450,1234,450C1165.7,450,1097,450,1029,450C960,450,891,450,823,450C754.3,450,686,450,617,450C548.6,450,480,450,411,450C342.9,450,274,450,206,450C137.1,450,69,450,34,450L0,450Z"/></svg>