<?xml version="1.0" standalone="no"?>
<svg xmlns:xlink="http://www.w3.org/1999/xlink" id="wave" style="transform:rotate(180deg); transition: 0.3s" viewBox="0 0 1440 410" version="1.1" xmlns="http://www.w3.org/2000/svg"><defs><linearGradient id="sw-gradient-0" x1="0" x2="0" y1="1" y2="0"><stop stop-color="rgba(243, 106, 62, 1)" offset="0%"/><stop stop-color="rgba(255, 179, 11, 1)" offset="100%"/></linearGradient></defs><path style="transform:translate(0, 0px); opacity:1" fill="url(#sw-gradient-0)" d="M0,82L60,102.5C120,123,240,164,360,150.3C480,137,600,68,720,75.2C840,82,960,164,1080,205C1200,246,1320,246,1440,252.8C1560,260,1680,273,1800,252.8C1920,232,2040,178,2160,191.3C2280,205,2400,287,2520,321.2C2640,355,2760,342,2880,307.5C3000,273,3120,219,3240,164C3360,109,3480,55,3600,88.8C3720,123,3840,246,3960,259.7C4080,273,4200,178,4320,150.3C4440,123,4560,164,4680,184.5C4800,205,4920,205,5040,225.5C5160,246,5280,287,5400,293.8C5520,301,5640,273,5760,280.2C5880,287,6000,328,6120,321.2C6240,314,6360,260,6480,225.5C6600,191,6720,178,6840,177.7C6960,178,7080,191,7200,218.7C7320,246,7440,287,7560,252.8C7680,219,7800,109,7920,116.2C8040,123,8160,246,8280,300.7C8400,355,8520,342,8580,334.8L8640,328L8640,410L8580,410C8520,410,8400,410,8280,410C8160,410,8040,410,7920,410C7800,410,7680,410,7560,410C7440,410,7320,410,7200,410C7080,410,6960,410,6840,410C6720,410,6600,410,6480,410C6360,410,6240,410,6120,410C6000,410,5880,410,5760,410C5640,410,5520,410,5400,410C5280,410,5160,410,5040,410C4920,410,4800,410,4680,410C4560,410,4440,410,4320,410C4200,410,4080,410,3960,410C3840,410,3720,410,3600,410C3480,410,3360,410,3240,410C3120,410,3000,410,2880,410C2760,410,2640,410,2520,410C2400,410,2280,410,2160,410C2040,410,1920,410,1800,410C1680,410,1560,410,1440,410C1320,410,1200,410,1080,410C960,410,840,410,720,410C600,410,480,410,360,410C240,410,120,410,60,410L0,410Z"/></svg>